<svg xmlns="http://www.w3.org/2000/svg" width="1600.003" height="1600.003" fill-rule="evenodd" clip-rule="evenodd" image-rendering="optimizeQuality" shape-rendering="geometricPrecision" text-rendering="geometricPrecision" viewBox="0 0 16666.66 16666.66" id="passengers-call-taxi">
  <defs>
    <linearGradient id="c" x1="12395.36" x2="12847.13" y1="5332.91" y2="4194.2" gradientUnits="userSpaceOnUse">
      <stop offset="0"></stop>
      <stop offset=".639"></stop>
      <stop offset="1"></stop>
    </linearGradient>
    <linearGradient id="a" x1="12395.26" x2="12847.86" y1="5332.91" y2="4194.2" gradientUnits="userSpaceOnUse">
      <stop offset="0" stop-color="#fff"></stop>
      <stop offset=".639" stop-color="#c6c0b9"></stop>
      <stop offset="1" stop-color="#c6c0b9"></stop>
    </linearGradient>
    <linearGradient id="d" x1="12395.26" x2="12847.86" y1="5332.91" y2="4194.2" gradientUnits="userSpaceOnUse">
      <stop offset="0" stop-color="#d6a092"></stop>
      <stop offset=".639" stop-color="#a6786a"></stop>
      <stop offset="1" stop-color="#a6786a"></stop>
    </linearGradient>
    <linearGradient id="b" x1="12395.26" x2="12847.91" y1="5332.91" y2="4194.2" gradientUnits="userSpaceOnUse">
      <stop offset="0" stop-color="#2b55b2"></stop>
      <stop offset=".639" stop-color="#214081"></stop>
      <stop offset="1" stop-color="#214081"></stop>
    </linearGradient>
  </defs>
  <rect width="16666.66" height="16666.66" fill="none"></rect>
  <path fill="#d6a092" fill-rule="nonzero" d="M4987.46 6066.29c122.13,227.35 238.27,878.75 373,1047.41 135,169.67 525.72,396.2 593.04,434.56 67.69,38.64 131.48,37.68 198.53,76.18 67.64,38.18 135.32,76.86 162.22,110.52 27.22,33.84 65.58,111.17 76.68,148.57 11.28,37.22 -0.46,109.7 -24.48,137.93 -23.33,27.86 -47.36,71.52 -44.8,-12.74 1.96,-50.74 -38,-131.17 -57.36,-143.41 -19.45,-12.38 -98.92,-39.32 -98.92,-39.32l-34.12 37.86c0,0 123.72,22.43 147.24,86.68 23.66,64.12 6.62,77.69 -59.78,29.19 -66.68,-48.32 -174.83,-72.34 -234.11,-132.13 -102.76,-101.98 -96.5,-80.56 -149.16,-112.63 -53.21,-31.56 -563.44,-261.78 -751.33,-403.91 -213.78,-161.45 -545.86,-783.48 -536.68,-910.77 9.22,-127.47 249.41,-709.09 440.04,-354z"></path>
  <path fill="#ba784a" fill-rule="nonzero" d="M5185.95 4574.82c106.96,48.82 160.48,226.89 249.59,308.09 89.38,81.34 154.82,183.82 100.98,281.47 -53.48,97.46 -95.36,225.07 3.43,331.71 65.54,70.1 -62.2,169.48 -50.28,201.91 28.36,76.68 58.14,144.82 117.6,193.32 38.18,30.92 14.66,166.43 -14.66,193.51 -44.8,40.6 -5.3,129.39 48.32,210.41 49.14,74.76 -36.72,243.61 -227.17,319.33 -124.22,49.96 -126.78,-85.09 -370.39,-117.46 -194.46,-25.62 -106.96,-786.72 -106.96,-1094.91 0,-308.23 249.55,-827.37 249.55,-827.37z"></path>
  <path fill="#eac4b2" fill-rule="nonzero" d="M5162.24 6217.73l108.79 -170.76c-78.46,-52.2 -175.65,-127.6 -229.13,-169.98 -29.46,-137.43 22.88,-349.61 174.33,-450.18 0,0 -688.26,-820.89 -667.02,-552.43 21.28,268.86 230.23,850.52 -197.2,1063.17 104.91,41.42 288.59,287.13 442.46,391.85 174.15,119.89 444.52,11.6 375.87,-95.54l-8.08 -16.12z"></path>
  <path fill="#a0593a" fill-rule="nonzero" d="M4480.42 4520.56c-107.01,48.78 -163.23,196.52 -252.33,277.59 -89.06,81.02 -244.89,386.7 -191.41,484.16 53.66,97.14 22.74,18.22 -76.04,124.68 -65.58,70.43 18.36,196.43 6.62,228.81 -28.36,77 -13.2,99.88 -78.78,139.84 -101.34,61.06 -120.02,221.55 -59.78,269.23 47.54,37.68 -4.02,206.07 -69.28,111.16 -62.52,-90.57 -1.14,330.11 188.98,406.01 124.54,49.33 438.26,-64.94 681.87,-97.32 194.46,-25.94 119.52,-822.35 119.52,-1130.4 0,-308.37 -269.37,-813.76 -269.37,-813.76z"></path>
  <path fill-rule="nonzero" d="M7883.99 12756.15c0 40.46-33.02 73.17-73.3 73.17l-55.08 0c-40.28 0-73.03-32.7-73.03-73.17l0-274.66c0-40.46 32.75-73.35 73.03-73.35l55.08 0c40.28 0 73.3 32.89 73.3 73.35l0 274.66zM9030.33 12573.28c0 40.28-32.38 72.98-72.98 72.98l-54.62 0c-40.6 0-73.44-32.7-73.44-72.98l0-275.03c0-40.42 32.83-72.98 73.44-72.98l54.62 0c40.6 0 72.98 32.57 72.98 72.98l0 275.03zM8943.83 9067.73c-29.5 16.9-699.72 170.44-752.11 170.44l-1033.53-256.3c-52.2 0-29-34.48 45.26-51.74l759.82-67.32c82.16-6.12 171.59-5.98 213.46-5.98l911.91 93.12c42.25 0 112.63 86.69 91.52 99.11l-236.35 18.68z"></path>
  <path fill-rule="nonzero" d="M9207.9 12314.24c0,105.68 -16.9,205.24 -110.2,222.19l-1184.7 182.87c-101.98,18.81 -161.76,-43.02 -161.76,-154.55l0 -3323.96c0,-111.67 83.48,-207.03 184.83,-199.31l1103.13 -83.63c93.12,-19.5 168.71,62.2 168.71,167.57l0 3188.83z"></path>
  <path fill="#232121" fill-rule="nonzero" d="M7981.32 12535.28c0 111.67-70.56 193.83-157.74 183.82l-691-133.4c-84.9-9.69-163.41-21.92-172.91-471.09l0-2815.06c7.76-289.64 125.05-372.63 278.73-361.85l585.18 60.1c87.19 6.3 157.74 101.98 157.74 213.65l0 3323.83zM8374.27 7131.61l-6.57 23.34 0 2074.05 6.57 23.06 0 2.42 348.97-30.33 2.92-2.56 6.62-23.2 0-2051.03-6.62-23.2 0-2.24-349.61 7.4-2.28 2.28zm-101.98 2097.39 0-2074.05c0-57.5 34.67-118.24 101.98-120.98l351.26-7.58c68 3.06 102.62 63.48 102.62 120.98l0 2051.03c0 57.36-34.62 117.78-98.93 120.66l-353.67 30.78c-68.6-3.06-103.26-63.62-103.26-120.84z"></path>
  <path fill-rule="nonzero" d="M8758.86 7064.75c2.24 51.38-17.54 94.4-44.3 96.18l-315.31 3.06c-26.76 1.92-50.42-38.18-53.02-89.6-1.73-51.88 18.41-94.4 44.8-96.19l314.99-3.52c27.08-1.65 50.6 38.64 52.84 90.06zM2494.84 11219.42c-157.11-466.71-341.11-587.24-478.36-585.32-192.87-10-407.47 261.51-426.15 425.2l.46 0c-5.94 39.78-42.84 67.18-82.16 61.38-40.42-5.98-67.69-43.16-61.7-82.8 39.32-229.45 260.83-538.64 569.56-549.1 234.06 1.6 456.25 200.13 616.24 685.38 12.61 38.04-8.22 78.65-46.22 91.84l-22.88 3.7c-30.14 0-58.5-19.5-68.78-50.28z"></path>
  <path fill="#232121" fill-rule="nonzero" d="M2909.85 13096.12c120.85,-50.28 443.56,-211.87 443.56,-332.53 0,-121.03 -48.64,-1625.7 -104.86,-1719.14 -90.75,-151.13 -2184.43,-156.93 -2265.18,-156.93 -80.52,0 -272.24,90.88 -272.24,90.88l1946.76 897.89 251.96 1219.82z"></path>
  <path fill-rule="nonzero" d="M2985.44 12995.6c-3.24,74.08 -60.74,124.36 -129.39,112.12l-2220.51 -178.53c-59.6,-10.64 -103.13,-74.9 -97.78,-143.04l117.28 -1727.82c5.16,-64.94 56.08,-111.98 114.09,-105.04l2143.47 144.69c66.22,8.36 138.88,73.76 136.14,144l-63.3 1753.62z"></path>
  <path fill="#232121" fill-rule="nonzero" d="M1696.79 12417.36c-4.02 58.78-43.66 100.2-88.28 92.94l-698.12-43.48c-43.66-6.94-74.58-59.01-70.38-115.87l35.44-665.56c4.52-56.4 42.39-96.5 85.41-90.7l691.64 55.26c44.67 6.44 78.33 58.14 74.44 115.82l-30.14 651.59zM2729.91 12507.56c-2.6 60.11-43.52 103.13-91.84 95.54l-742.29-45.76c-45.76-7.58-80.24-61.52-76.68-120.34l29.82-683.28c3.38-57.87 42.7-99.43 87.96-93.49l735.48 55.76c47.54 7.08 83.63 60.93 81.2 120.02l-23.66 671.54z"></path>
  <path fill-rule="nonzero" d="M2313.26 11330.76c-156.79,-467.53 -341.44,-587.42 -478.68,-585.82 -192.55,-10.32 -407.15,261.65 -425.83,425.01l0.14 0c-5.62,39.83 -42.84,67.37 -82.3,61.75 -39.5,-6.3 -67.5,-43.34 -61.56,-82.85 39.32,-229.59 261.01,-539.74 569.56,-549.05 234.75,1.6 456.57,199.95 616.42,685.38 13.06,37.68 -7.9,78.78 -46.22,91.66l-22.56 3.88c-30.65,0 -58.82,-19.69 -68.96,-49.96z"></path>
  <path fill="#a3d0ef" fill-rule="nonzero" d="M5747.92 8692.32c81.02,-241.51 680.72,-54.12 762.89,72.66 108.93,167.89 -40.92,292.75 -122.76,313.21 -81.84,20.32 -640.12,-385.87 -640.12,-385.87z"></path>
  <path fill="#d6a092" fill-rule="nonzero" d="M7117.73 10613.82l-30.78 -52.7 57.04 63.16c18.54,16.44 36.4,19.96 13.7,-26.58 -23.84,-47.04 -45.12,-81.07 -45.12,-81.07l48.37 71.57 34.94 34.8c12.74,-1.78 14.66,-25.17 5.8,-41.93 -8.68,-16.58 -7.72,-16.9 -22.06,-40.1 -8.86,-15.48 -13.06,-29 -13.06,-29l41.42 59.6c9.18,12.74 21.24,26.9 19.96,-1.92 -1.28,-28.68 -26.76,-76.86 -35.94,-91.98l-14.98 -28.04 7.26 -4.7 39.32 19.19c13.2,-3.38 4.52,-16.44 -14.2,-45.58 -0.64,-1.92 -34.3,-53.34 -59.42,-75.26l-1.33 -1.42c-51.06,-45.12 -113.58,-80.88 -113.58,-80.88 0,0 -193.83,-283.57 -258.41,-504.48 -54.17,-186.56 -342.85,-117.78 -299.51,39.96 31.42,117.28 228.76,344.49 353.63,475.8l-0.32 0.64 95.73 117.46c25.57,48.32 59.42,124.54 97.14,162.86 26.72,27.4 86.68,74.26 94.4,60.61z"></path>
  <path fill="#2b55b2" fill-rule="nonzero" d="M6520.17 8990.09c65.22,29.14 160.63,-18.54 201.36,137.88 41.11,156.79 41.11,497.22 115.87,585.68 74.9,88.6 238.26,428.89 218.12,490.09 -20.46,61.56 -170.63,190.95 -190.91,190.95 -20.32,0 -170.12,-224.93 -183.82,-333.99 -13.56,-108.6 -160.63,-1070.61 -160.63,-1070.61z"></path>
  <path fill-rule="nonzero" d="M6735.42 10613.32c111.94,759.32 -19.37,912.73 -59.78,1109.62 0,0 -116,585.96 -33.66,846.65 6.26,19.69 107.28,118.29 260.5,219.31 45.12,29.64 21.1,137.88 -215.43,47.68 -144.37,-55.58 -236.67,-40.79 -236.67,-40.79 0,0 -192.37,-14.16 -95.04,-214.61 46.22,-95.04 -153.87,-558.42 -33.07,-913.05 54.62,-160.76 -49.28,-659.44 28.04,-972.79 21.42,-86.68 385.1,-82.02 385.1,-82.02z"></path>
  <path fill="#232121" fill-rule="nonzero" d="M6345.03 10610.76c34.8,767.04 -125.05,999.69 -185.15,1191.6 0,0 -152.86,577.09 -97.14,844.41 4.02,20.33 73.94,122.76 215.75,238.77 41.88,33.84 7.08,139.2 -219.26,25.48 -138.11,-69.6 -231.05,-64.44 -231.05,-64.44 0,0 -185.93,-17.58 -68.82,-206.89 55.58,-90.24 -154.96,-616.6 64.8,-998.13 84.4,-147.11 -39.96,-731.78 68.28,-1035.95 30.01,-83.81 452.6,5.16 452.6,5.16z"></path>
  <path fill="#380f01" fill-rule="nonzero" d="M6452.81 8581.15c61.38,33.02 190.44,59.28 190.44,59.28 0,0 -69.28,191.72 -131.8,216.25 -62.98,24.16 -212.51,-188.02 -212.51,-188.02l100.39 -128.11 53.48 40.6z"></path>
  <path fill="#d6a092" fill-rule="nonzero" d="M5876.35 8495.61c65.4,153.04 1.92,328.19 -38.37,385.55 -22.24,31.56 90.39,240.23 238.95,287.09 120.16,37.86 374.09,-72.48 336.55,-140.62 -11.92,-20.78 -127.42,-129.07 -131.12,-150.35 -22.1,-127.92 64.76,-235.39 101.67,-302.25 20.78,-38.18 -507.68,-79.42 -507.68,-79.42z"></path>
  <path fill="#4686d3" fill-rule="nonzero" d="M6520.17 8990.09c63.12,31.56 140.3,139.34 160.76,235.52 37.4,172.22 32.24,454.2 59.14,606.46 42.84,242.01 170.94,1586.83 130.35,1615.19 -116.51,81.66 -606.92,161.13 -850.39,117.1 0,0 73.8,-2439.46 194.01,-2444.12 153.22,-6.12 161.44,-143.72 96,-205.24l210.13 75.08z"></path>
  <path fill="#d6a092" fill-rule="nonzero" d="M6511.95 8257.81c30.92,285.67 -94.58,499.78 -256.35,495.89 -288.87,-6.9 -551.98,-216.67 -568.28,-503.16 -16.08,-286.77 131.8,-380.21 388.61,-394.41 256.67,-14.34 395.56,34.8 436.02,401.68z"></path>
  <path fill="#2b55b2" fill-rule="nonzero" d="M5813.01 8863.77c-87.64,35.76 -236.67,66.04 -286.45,89.42 -16.76,7.9 64.9,-20.64 106,103.13 62.52,187.34 -27.86,232.46 -27.4,243.61 5.66,97.14 186.43,371.21 223.15,584.18 41.43,243.47 -158.02,389.57 -333.67,1507.59 -6.26,39.46 101.98,118.74 212.05,147.24 109.89,29.19 567.46,83.94 902.55,-7.72 42.38,-11.6 -31.37,-1085.14 -117.6,-1646.29 -96.32,-622.86 -221.55,-772.57 -221.55,-772.57 0,0 -157.7,28.55 -334.63,-134.36 -77.64,-71.52 -122.44,-114.22 -122.44,-114.22z"></path>
  <path fill="#380f01" fill-rule="nonzero" d="M6321.64 8008.71c113.26,-82.8 169.03,80.38 169.03,80.38 0,0 24.48,-165.92 -279.37,-258.59 -121.03,-36.9 -313.07,0.19 -314.17,22.56 -1.65,22.24 424.51,155.65 424.51,155.65z"></path>
  <path fill="#380f01" fill-rule="nonzero" d="M6345.16 8012.73c-51.38,-18.04 -299.51,-20.46 -383.13,139.2 -58.64,111.98 -46.54,94.08 -46.54,94.08 0,0 -106.37,-6.26 -69.92,111.53 18.86,60.56 57.82,96.5 57.82,96.5l38.36 176.75c0,0 -327.23,-93.76 -308.87,-405.69 18.54,-311.93 145.83,-386.51 317.41,-387.52 138.56,-0.96 394.87,175.15 394.87,175.15z"></path>
  <path fill="#001c49" fill-rule="nonzero" d="M6936.14 12734.91c-20.6,-31.1 -180.45,-125.37 -239.22,-220.41 -59.33,-95.73 -45.63,-250.05 -4.7,-354.31 0,0 -240.55,45.44 -404.05,18.22 4.16,54.44 57.82,350.89 48.96,418.89 -6.62,14.52 -14.16,35.3 -20.14,68.32 -14.84,78.78 30.14,127.29 30.14,127.29 0,0 61.38,38.82 143.54,24.48 94.08,-16.9 159.99,24.8 304.85,46.59 140.62,20.78 139.84,-7.44 149.02,-34.02 12.38,-22.56 5.16,-74.58 -8.4,-95.04z"></path>
  <path fill="#2b2b2b" fill-rule="nonzero" d="M6315.84 12858.18c-9.96,-35.81 -171.72,-153.91 -220.72,-254.43 -49.78,-101.02 -20.78,-253.11 30.14,-352.85 0,0 -243.79,21.28 -403.46,-22.06 -1.42,59.28 26.76,407.48 2.1,433.74l0 0.46c-6.76,13.7 -14.02,30.33 -21.24,55.13 -22.42,77 21.56,129.7 21.56,129.7 0,0 69.28,40.74 136.46,38.64 95.22,-3.2 44.67,46.72 186.93,83.17 137.88,34.8 248.41,-11.78 260.51,-36.58 0.64,-1.6 20.78,-27.22 7.72,-74.9z"></path>
  <path fill="#4686d3" fill-rule="nonzero" d="M5825.11 9935.98c100.02,81.84 862.45,0 908.21,-36.26 45.26,-36.22 17.86,109.11 17.86,109.11 0,0 -535.67,181.59 -953.15,72.48 -37.36,-9.64 27.08,-145.32 27.08,-145.32z"></path>
  <path fill="#fff" fill-rule="nonzero" d="M5879.55 8674.14c82.02,109.2 413.09,285.94 535.9,163.36 72.3,118.11 90.7,149.85 90.7,149.85 0,0 -313.21,394.87 -689.9,-81.7 -150.35,-190.13 63.3,-231.5 63.3,-231.5z"></path>
  <path fill="#fff" fill-rule="nonzero" d="M6163.44 9127.97c-74.9 122.63-54.44 721.83-54.44 762.56 95.22-67.96 210.91-27.04 210.91-27.04 0 0-31.29-705.52-49.83-751.15-18.36-45.58-106.64 15.62-106.64 15.62zM6315.38 9073.53c156.74 115.69 224.56 755.81 177.07 1001.01 81.52 61.24 197.34-13.84 197.34-13.84 0 0-74.9-912.27-258.59-1000.87-183.83-88.28-115.82 13.7-115.82 13.7zM6338.27 8801.1c27.04 50.1 40.6 118.24 27.04 131.76-13.65 13.56 86.37 86.36 113.59 63.67 27.26-22.88 0-113.58-45.4-159.03-45.44-45.62-95.22-36.4-95.22-36.4z"></path>
  <path fill="#eac4b2" fill-rule="nonzero" d="M5620.14 8937.25c-78.28,-29.83 -246.99,-71.89 -394.55,-197.39 -123.59,-105.55 -251.83,-262.79 -316.27,-345.91 1.28,-23.2 -0.64,-44.62 -5.16,-63.02l3.06 4.52c2.42,-48.82 -16.12,-130.16 -57.82,-182.68 -41.61,-52.39 -56.91,-80.89 -68.51,-63.8 -11.28,16.76 -1.78,39.14 13.06,65.08l15.62 26.58c-23.84,-26.08 -49.46,-52.84 -56.54,-62.02 -13.2,-17.08 -56.41,-64.44 -88.15,-77.5 -31.74,-12.88 -20.46,6.62 -10.46,21.6 10.46,14.8 50.1,70.56 50.1,70.56 0,0 -13.7,-10.14 -26.9,-26.9 -12.74,-16.44 -28.18,-20.96 -43.66,-37.22 -15.17,-16.26 -34.48,-26.9 -41.24,-13.7l24.67 53.48 60.24 82.67c0,0 -29.5,-37.72 -72.34,-82.67 -42.52,-45.12 -42.52,-33.02 -35.76,4.2 2.56,11.42 9.64,27.08 17.86,43.98l-15.94 -10.78c-18.54,3.7 9.82,89.24 28.86,129.7 27.68,58 99.38,126.28 142.26,174.33l15.12 22.38c52.52,108.74 219.31,406.52 333.54,500.09 125.82,103.13 400.99,408.11 526.17,317.41 136.96,-98.47 2.74,-352.99 2.74,-352.99z"></path>
  <path fill="#380f01" fill-rule="nonzero" d="M5706.36 8439.85c-93.63,76.54 -259.91,104.08 -305.95,131.17 -44.8,26.26 79.42,443.56 280.65,448.21 106.83,1.78 260.69,-388.43 260.69,-388.43l-235.39 -190.95z"></path>
  <path fill-rule="nonzero" d="M5409.09 7003.36c110.84,70.06 493.02,452.09 515.26,516.04 -47.54,41.1 -182.73,191.72 -182.73,191.72 0,0 -451.09,-156.28 -476.9,-300.15 -25.44,-143.86 -11.09,-223.01 -11.09,-223.01l155.46 -184.6z"></path>
  <path fill="#d6a092" fill-rule="nonzero" d="M5424.07 9868.66c27.86,207.02 18.68,821.34 -41.42,909.3 -60.06,88.01 -220.55,1424.93 -221.5,1513.53 -1.65,157.56 145.64,549.42 377.01,661.41 -132.63,81.02 -354.63,10.14 -455.98,-168.07 -65.4,-115 -295.95,-150.17 -321.43,-228.76 -57.36,-177.7 64.44,-154.82 67.37,-420.35 2.56,-265.85 -176.29,-1079.48 14.34,-1490.65 116.96,-251.65 65.58,-609.66 95.54,-698.12 30.6,-88.6 486.07,-78.28 486.07,-78.28z"></path>
  <path fill-rule="nonzero" d="M4789.75 12346.94c-53.48,41.42 -107.78,167.06 -77.32,272.61 30.46,105.68 96.18,358.65 74.12,442.59 55.9,13.84 57.36,1.09 57.36,1.09 0,0 -5.98,-379.25 46.54,-357.33 52.39,21.74 134.04,243.61 227.17,349.93 93.76,106.64 466.43,79.1 487.54,47.86 21.46,-31.6 44.3,-131.3 -39.28,-163.87 -83.62,-32.7 -156.79,-86.04 -156.79,-86.04 0,0 -194.65,66.41 -288.23,-71.2 -92.67,-138.38 -331.11,-435.65 -331.11,-435.65z"></path>
  <path fill="#eac4b2" fill-rule="nonzero" d="M5050.31 9302.29c-63.99,256.03 -128.11,1296.18 -271.83,1552.22 -204.28,362.85 -460.45,1144.24 -552.3,1592.49 -58,281.93 -280.19,872.09 -488.18,631.9 -151.31,-174.83 117.46,-473.56 151.95,-644.14 82.3,-403.45 35.12,-697.98 84.26,-972.05 60.06,-336.41 101.67,-476.39 204.11,-732.24 95.72,-239.91 263.93,-1300.07 263.93,-1300.07l608.06 -128.11z"></path>
  <path fill="#232121" fill-rule="nonzero" d="M3743.16 12702.35c-36.26,203.96 17.86,222.19 77.82,246.03 60.24,24.34 246.35,-42.06 294.17,-185.93 -59.92,299.69 -90.06,329.97 -149.8,402 -60.42,72.02 -222.19,113.9 -270.37,89.88 -98.61,-49.46 -149.67,-185.93 -89.93,-329.79 60.1,-144.37 138.11,-222.19 138.11,-222.19z"></path>
  <path fill="#ce0000" fill-rule="nonzero" d="M5515.42 7391.98c0,0 109.56,-31.29 83.17,-118.43 -25.48,-87.96 -145.19,-433.42 -120.84,-512.38 23.98,-78.6 88.46,-216.34 8.68,-335.59 -56.86,-84.58 -168.21,-90.57 -304.03,-248.13 0,0 -171.59,93.12 -272.11,64.12 -150.17,-43.34 -241.69,-21.42 -532.8,-304.03 -43.98,42.38 -148.25,18.72 -252.33,138.89 -87,191.91 49.78,438.26 164.69,751.92 123.86,338.06 351.07,799.97 427.11,817.05l-39.64 22.56c-329.65,202.05 -319.01,686.02 -319.01,973.93 0,288.09 -87.83,1585.05 -339.98,2029.24 -43.02,74.94 291.98,-96.82 460,-96.82 167.7,0 155.97,48.19 300.15,48.19 143.73,0 258.27,333.53 452.28,225.57 186.7,-103.76 266.94,-84.76 346.87,-65.9 42.52,10 84.9,20.14 143.22,11.78 192.05,-2016.55 -6.12,-2920.1 -205.43,-3401.97z"></path>
  <path fill="#aa0202" fill-rule="nonzero" d="M5616.12 8610.66c-9.5,-383.95 -44.94,-671.86 -145,-1089.34 -30.6,-129.02 -431.77,-591.3 -676.66,-1111.67 -186.29,-395.69 -395.56,-393 -520.6,-390.07 -17.72,0.32 -33.98,0.82 -48,0 -45.58,60.56 -64.63,37.54 -81.71,14.34 -14.34,-19.5 -27.35,-39 -53.8,-8.22 -87,191.91 60.61,512.65 175.15,826.87 123.72,338.15 351.53,799.74 427.11,816.69l-39.46 22.7c-329.33,202.05 -319.01,686.07 -319.01,974.3 0,287.91 -143.59,1586.97 -395.56,2031.35 -42.84,74.9 311.29,155.33 479.63,155.33 167.89,0 535.4,131.62 1044.04,-81.71 17.58,-168.66 181.27,-1080.3 153.87,-2160.55z"></path>
  <path fill="#232121" fill-rule="nonzero" d="M5279.07 6032.31c82.02,72.66 270.37,390.03 315.63,517.17 45.44,127.29 -30.14,293.07 6.3,511.06 36.4,217.67 140.62,650.58 140.62,650.58l-216.02 91.34c0,0 -319.83,-1132.64 -308.55,-1288.92 30.78,-437.11 -177.39,-680.41 -177.39,-651.54 0,27.22 239.41,170.31 239.41,170.31z"></path>
  <path fill-rule="nonzero" d="M3708.82 9256.71c-17.08,26.44 1.32,105.68 198.03,92.8 196.06,-13.06 1127.47,80.75 1303.76,121.35 278.09,63.62 198.8,-41.28 184.01,-136.14 0,0 20.92,-611.3 108.56,-728.59 107.78,-143.54 -211.23,-447.26 -352.35,-498.31 -141.31,-50.46 -900.31,-93.17 -998.13,-90.57 -195.88,4.84 -517.31,327.69 -459.5,409.21 74.94,105.22 73.3,738.59 15.62,830.25z"></path>
  <path fill="#232121" fill-rule="nonzero" d="M5210.61 9470.86c278.09,63.62 198.8,-41.28 184.01,-136.14 0,0 20.92,-611.3 108.56,-728.59 107.78,-143.54 -211.23,-447.26 -352.35,-498.31 -69.6,-24.2 -287.77,-47.72 -503.48,-64.3l-121.67 1342.58c292.75,27.54 592.26,63.3 684.93,84.76z"></path>
  <path fill="#0d0f12" fill-rule="nonzero" d="M5024.18 8457.25c-2.42,0 -4.84,0 -7.4,-0.32 -39.78,-3.83 -68.96,-39.14 -65.08,-79.6l8.54 -88.1c3.83,-37.54 35.57,-65.58 72.48,-65.58 2.42,0 4.84,0.18 7.26,0.32 39.96,4.02 69.28,39.78 65.4,79.74l-9 88.33c-3.38,37.36 -35.48,65.22 -72.2,65.22z"></path>
  <path fill="#232121" fill-rule="nonzero" d="M4261.48 8317.72c-4.2,40.15 -39.96,69.15 -79.79,65.4 -40.1,-4.16 -69.42,-39.78 -65.4,-79.56l9.04 -88.46c3.83,-39.78 39.46,-69.1 79.1,-65.08 40.28,3.83 69.6,39.32 65.58,79.42l-8.54 88.28z"></path>
  <path fill-rule="nonzero" d="M5133.11 7984.23c.32 33.66-43.2 263.25-66.72 332.71-6.9 20.6-90.06 34.8-78.28-52.52 8.68-64.17 31.42-309.69 31.42-309.69l113.58 29.5zM4072.95 5989.11c121.48-32.52 405.37-234.43 405.37-234.43 0 0 173.69 224.79 529.74 517.36 176.43 145 287.96 249.59 346.92 372.17 45.07 93.3 20.46 305.81 56.68 460.18 36.44 154.5 61.24 268.09 88.46 340.75 27.22 72.67 94.58 359.61 94.58 359.61 0 0-1212.88 134.04-1240.1 125-27.4-9 127.74-428.57 73.3-591.76-54.62-163.37-354.96-1348.89-354.96-1348.89z"></path>
  <path fill="#eac4b2" fill-rule="nonzero" d="M4030.43 6088.99c222.33,20.96 257.95,252.83 221.87,474.33 -36.13,221.37 126.46,743.25 184.46,810.93 58.14,67.64 728.41,401.95 849.25,384.55 120.66,-17.86 182.23,-110.98 277.59,-84.58 95.41,26.76 166.93,110.84 193.69,158.57 39.46,69.6 34.3,190.08 -54.49,167.07 -60.88,-15.62 -38.5,-28.04 -152.72,-34.16 -113.59,-6.3 -149.85,-0.96 -321.3,15.48 -171.91,16.26 -894.33,-136.78 -1084.64,-335.13 -149.66,-156.29 -147.24,-899.54 -131.62,-1233.84 21.74,-458.54 17.9,-323.21 17.9,-323.21z"></path>
  <path fill="#232121" fill-rule="nonzero" d="M4130.5 5980.25c-106.37,-5.94 -184.51,84.44 -255.71,350.43 -70.56,266.35 -58.96,1246.08 47.22,1334.55 106.64,88.6 897.39,392.95 1092.49,366.51 -8.86,-124.36 82.02,-378.43 82.02,-378.43 0,0 -651.22,-262.97 -677.8,-360.62 -26.44,-97.46 20.14,-871.63 -33.02,-1031.29 -53.21,-159.48 -95.22,-272.43 -255.21,-281.15z"></path>
  <path fill-rule="nonzero" d="M4640.59 7361.2l-18.22 1.6c-213.65,19.32 -332.21,208.99 -368.79,376.19 -39,168.21 -97,431 -98.79,486.76 -0.64,30.28 20.14,56.22 46.91,57.82l5.3 0c24.16,-1.74 43.98,-23.98 44.62,-51.7 2.28,-68.14 64.3,-321.75 98.97,-469 36.72,-148.25 116.32,-273.29 281.93,-291.15l15.3 -0.96c93.76,-5.34 161.13,15.94 212.51,54.12 55.58,20.46 120.2,39.64 175.01,57.82 -72.85,-125.64 -202.05,-236.8 -394.73,-221.5z"></path>
  <path fill="#eac4b2" fill-rule="nonzero" d="M4850.49 5538.34c-223.47,-108.79 -385.69,-323.39 -404.23,-557.18 -26.26,-341.2 189.94,-523.93 471.92,-559.05 280.96,-35.44 451.27,295.49 470.45,603.08 11.78,185.74 -32.06,636.88 -226.85,647.52 -151.63,8.36 -209.63,-84.9 -311.29,-134.36z"></path>
  <path fill="#ba784a" fill-rule="nonzero" d="M5237.33 4764.63c-64.58,-23.52 -154,-74.13 -210.86,-175.28l-151.94 -162.91c45.58,-25.62 137.1,-11.74 247.94,25.8 135,59.1 222.19,120.53 307.91,255.21 91.84,144.37 97.46,256.3 93.58,402.13 -4.48,166.74 -111.48,232.83 4.39,343.17 116.14,110.84 -38.69,172.72 -92.48,267.13 -54.17,94.45 185.29,32.38 -171.59,87.32 201.23,-65.22 38,45.94 19,-50.42 -45.76,-230.73 166.74,-211.55 113.91,-361.53 -53.16,-150.17 141.94,-177.89 50.42,-193.51 -91.34,-15.48 -48.96,-235.25 -33.84,-294.21 20.46,-79.1 -147.56,-132.44 -176.43,-142.9z"></path>
  <path fill="#a0593a" fill-rule="nonzero" d="M4421.28 4588.07c185.15,-218.81 508.81,-188.53 530.74,-172.91 81.66,57.86 184.65,167.24 184.65,167.24 55.9,62.52 112.58,145.96 107.14,156.29 -113.76,223.33 -429.21,185.47 -400.21,240.09 41.88,75.22 -13.38,142.4 -39.32,158.84 -25.8,16.44 -57.22,119.06 -21.1,169.48 55.72,77.19 60.42,203.51 -8.54,264.89 -32.75,29 65.54,290.15 -4.07,315.31 -142.26,51.7 -21.1,151.44 29.32,239.41 46.58,81.34 -76.18,263.43 138.75,366.05 -378.29,-31.74 -272.47,-248.45 -359.48,-309.19 -87,-60.56 -198.8,-49.78 -136.6,-191.09 11.42,-26.58 -117.78,-236.17 -104.91,-261.01 -63.16,-23.84 -21.1,-113.58 -21.1,-113.58 0,0 -98.93,-788.96 104.72,-1029.83z"></path>
  <path fill="#6a7b9b" fill-rule="nonzero" d="M8238.31 11411.32c-94.59,-282.43 -206.39,-354.77 -289.05,-353.95 -116.51,-5.8 -246.17,158.02 -257.44,256.81l0.32 0c-3.88,24.16 -26.13,40.6 -49.78,37.22 -24.52,-3.7 -40.96,-25.94 -37.4,-49.96 23.84,-138.7 157.56,-325.63 344.31,-331.89 141.3,0.82 275.48,121.3 372.17,414.37 7.58,22.74 -4.66,47.54 -27.72,55.44l-13.84 2.24c-18.22,0 -35.12,-11.6 -41.56,-30.28z"></path>
  <path fill="#8fa4bc" fill-rule="nonzero" d="M8464.01 13226.47c73.3,-30.14 268.09,-127.79 268.09,-200.59 0,-73.48 -45.9,-1499.19 -71.98,-1559.75 -50.47,-116.69 -1308.79,-157.61 -1371.77,-151.31 -48.5,4.84 -167.39,72.48 -167.39,72.48l1190.78 1102.04 152.27 737.13z"></path>
  <path fill="#6a7b9b" fill-rule="nonzero" d="M8509.64 13165.91c-1.65,44.76 -36.77,75.08 -78.01,67.64l-1342.4 -239.59c-35.94,-6.26 -62.07,-44.62 -58.96,-86.18l70.88 -1476.63c3.38,-39.46 33.98,-67.82 68.96,-63.62l1295.5 125c39.96,4.84 83.94,44.17 82.02,86.87l-38 1586.51z"></path>
  <path fill="#6a7b9b" fill-rule="nonzero" d="M8109.42 11484.63c-94.44,-282.11 -205.93,-354.91 -288.91,-353.95 -116.46,-5.98 -246.35,157.89 -257.63,256.81l0.32 0c-3.52,24.16 -26.08,40.74 -49.78,37.54 -24.16,-4.02 -40.92,-26.26 -37.04,-50.42 23.7,-138.43 157.56,-325.63 344.13,-331.57 141.94,1.09 275.67,120.66 372.49,414.05 7.58,22.88 -4.98,47.68 -28,55.9l-13.88 1.78c-18.18,0 -35.44,-11.78 -41.7,-30.14z"></path>
  <path fill="#8294b3" fill-rule="nonzero" d="M8274.21 12173.39c-3.2,0 -6.26,-0.13 -9.32,-0.46l-967.81 -117.28c-55.63,-4.52 -96.55,-53.53 -91.84,-109.11l12.06 -327.68c4.38,-52.7 48.5,-92.35 100.24,-92.35 2.88,0 5.94,0.18 8.86,0.32l963.61 83.3c55.58,4.84 96.82,53.66 91.85,109.24l-7.58 361.71c-4.34,52.52 -48.32,92.3 -100.06,92.3z"></path>
  <path fill="#eac4b2" fill-rule="nonzero" d="M15467.26 4279.83c29.82,-37.68 119.89,-165.65 119.89,-165.65 0,0 157.24,-144.82 187.52,-174.96 29.5,-29.96 271.46,-174 279.05,-129.02 7.26,45.08 -183,174.14 -183,174.14 0,0 143.68,12.1 174.01,12.1 29.78,0 54.94,59.74 68.46,103.08 27.72,87.51 12.42,96.05 7.58,97.51 -25.17,7.4 -50.93,-71.06 -82.67,-97.51 -27.72,-23.52 -90.06,-15.3 -90.06,-15.3 0,0 63.98,5.67 92.48,42.7 36.9,47.04 78.78,118.29 62.66,132.94 -27.72,24.8 -56.72,-37.4 -85.22,-57.68 -28.36,-20.46 -47.54,-20.14 -47.54,-20.14 0,0 110.39,90.06 80.24,120.16 -29.96,30.14 -67.64,-47.68 -105.18,-40.1 -37.4,7.58 -147.93,130.34 -230.59,167.89 -82.8,37.68 -263.11,180.44 -263.11,180.44 0,0 -210.54,-75.22 -179.94,-165.28 29.82,-90.24 195.43,-165.33 195.43,-165.33z"></path>
  <path fill="#2b55b2" fill-rule="nonzero" d="M12872.98 4570.03c-146.93,-70.11 -337.05,-144.05 -530.24,-100.07 -87.5,-5.8 -249.27,14.8 -320.93,71.06 -128.74,101.48 -208.03,15.76 -283.89,-14.52 -55.58,-22.38 147.24,447.44 240.23,471.6 52.52,13.84 113.26,37.22 156.29,54.76 85.54,150.35 219.91,285.17 370.39,313.07 321.89,59.78 839.89,-80.11 839.89,-80.11 -33.66,-49.09 -1.6,-492.51 -471.73,-715.8z"></path>
  <path fill-rule="nonzero" d="M12429.24 4496.68c-21.74,-12.06 37.54,-52.84 -23.2,-217.48 -60.42,-164.64 -207.98,-394.41 -83.44,-670.4 54.44,-120.52 334.17,589.52 329.79,680.41 -4.66,91.02 -171.27,236.67 -223.15,207.48z"></path>
  <path fill="#6a7b9b" fill-rule="nonzero" d="M12092.19 7482.82c-141.76,-118.74 -555.67,-377.33 -555.67,-377.33 -189.81,436.16 -324.31,628.84 -388.61,1189.22 -35.62,313.21 -231.05,1973.02 -311.75,2219.19 -416.2,1266.86 -308.23,2299.29 -308.23,2299.29l419.53 -7.9 309.06 26.13c0,0 465.43,-1775.18 504.11,-1933.38 39,-157.43 496.58,-1552.85 496.58,-1552.85 0,0 -146.33,1022.11 -184.19,1387.02 -93.44,899.03 -87.14,2087.61 -87.14,2087.61l915.79 -72.34c0,0 -29.64,-643.82 92.16,-1497.27 16.44,-116.32 -1.32,-325.59 16.07,-443.05 99.43,-679.13 195.47,-730.18 208.03,-3509.62l-1125.74 185.29z"></path>
  <path fill="#8fa4bc" fill-rule="nonzero" d="M12993.82 11226.36c16.44-116.46 78.28-378.93 96-496.4 82.16-561.34 107.65-2147.53 118.29-2854.01l-263.11-205.56c120.02 768.5 97.33 2857.53-129.89 3198.96-120.16 180.13-169.62 429.67-224.43 751.1-67 391.03 29.32 853.59 32.7 1124.78l278.28-21.92c0 0-29.64-643.5 92.16-1496.95zM12363.52 8746.48c88.15-136.15-494.61 1899.4-530.55 2091.45-36.26 192.36-76.22 380.39-136.28 452.41-60.1 72.02-364.31 1312.44-392.36 1457.13-27.68 144.37-356.87 57.82-356.87 57.82 0 0 388.93-1262.98 533.16-1635.15 144.04-372.17 841.03-2359.22 882.91-2423.66z"></path>
  <path fill-rule="nonzero" d="M11136.62 12638.41c39.32 155.14 131.8 349.11 318.05 409.07 116.46 37.54 162.08 204.42 113.9 264.2-246.03 306.13-720.18 35.94-720.18 35.94 0 0-66.41-126.01-198.03-156.29-261.78-59.78-126.46-347.05-88.78-502.06 38.87-155.14 575.04-50.87 575.04-50.87zM12697.37 12563.14c39.28 155.01 67.32 213.83 215.89 288.23 109.89 54.94 264.71 32.06 272.29 184.19 12.88 240.87-498.5 165.28-498.5 165.28 0 0-259.91-91.66-550.06-110.66-148.89-10-19.82-315.95 18.22-470.82 38-155.14 542.16-56.22 542.16-56.22z"></path>
  <path fill="#6a7b9b" fill-rule="nonzero" d="M10457.82 12969.48c0,0 -93.44,-335.91 -66.04,-366.19 176.43,-194.83 936.75,-131.49 966.71,-42.06 29.78,89.24 -107.96,288.87 -107.96,288.87 0,0 -395.56,-99.06 -475.11,-39.46 -79.1,59.46 -317.59,158.84 -317.59,158.84z"></path>
  <path fill-rule="nonzero" d="M11172.7 12965.96c5.16,-99.29 143.54,-207.39 75.91,-231.23 -68.65,-23.34 -404.09,-71.2 -352.03,80.74 51.2,151.76 67,168.85 96.5,170.44 29.64,1.6 179.62,-19.96 179.62,-19.96z"></path>
  <path fill="#6a7b9b" fill-rule="nonzero" d="M12007.93 12909.69c-52.52,-25.94 -123.41,-214.29 -91.2,-259.23 111.98,-155.33 931.13,-275.35 1020.7,-125.32 30.92,52.02 -48,264.2 -83.94,252.28 -426.15,-142.08 -845.55,132.26 -845.55,132.26z"></path>
  <path fill-rule="nonzero" d="M12777.89 12854.43c0,-99.24 94.76,-175.28 31.6,-209.9 -54.44,-29.82 -375.23,-74.31 -315.63,74.58 59.14,148.57 76.04,165.15 105.68,165.15 29.5,0 178.35,-29.82 178.35,-29.82z"></path>
  <path fill="#2b55b2" fill-rule="nonzero" d="M13595.4 5036.42c335.64,-71.02 902.59,-284.53 1030.02,-296.27 159.53,-14.84 507.54,-388.16 791.75,-446.48 92.8,135.82 256.81,239.13 150.17,474.2 -106.69,235.07 -406.33,400.22 -636.24,606.42 -263.75,236.03 -1497.27,587.6 -1491.29,297.59 4.98,-290.01 155.6,-635.46 155.6,-635.46z"></path>
  <path fill="#d6a092" fill-rule="nonzero" d="M13152.17 4942.65l-126.28 -125 95.68 -459.86 -624.64 -55.9c0,0 -40.92,146.01 -93.76,323.85 -26.76,145.83 -235.07,130.21 -242.97,178.67 -10.32,64.62 98.28,309.19 226.85,508.04 31.93,144.82 102.63,296.77 215.57,271.29l24.66 -9.5c20.14,9.36 39.32,14.52 56.22,11.14l0.64 -46.08c190.45,-147.29 468.04,-596.64 468.04,-596.64z"></path>
  <path fill="url(#a)" d="M13055.34 4676.35l4.84 -23.7c3.7,3.38 6.94,6.44 10.14,9.36l-14.98 14.34zm-323.49 -353.35l-84.63 -7.54c2.92,-9.18 4.7,-17.9 5.16,-26.26 0.5,-10.32 -2.56,-28.36 -8.68,-52.39 27.86,26.58 57.68,55.9 88.14,86.18z"></path>
  <path fill="url(#b)" d="M12265.56 4754.81c-0.64,-1.28 -1.28,-2.42 -1.78,-3.38 2.42,0.32 4.84,0.46 7.26,0.46 1.14,0 2.1,0 3.06,-0.14 -2.88,1.14 -5.62,2.1 -8.54,3.06zm54.12 -22.88c43.52,-35.12 83.17,-113.44 112.62,-205.11 -9.18,31.28 -18.81,64.44 -29.14,98.92 -9.82,53.34 -43.84,85.09 -83.48,106.19z"></path>
  <path fill="url(#c)" d="M12449.38 4468c33.39,-127.42 46.72,-267.77 25.48,-351.39 -2.28,-9.18 -0.5,-13.52 4.66,-13.52 18.86,0 83.44,56.22 164.19,133.72 6.12,24.02 9.18,42.06 8.68,52.39 -0.46,8.36 -2.24,17.08 -5.16,26.26l-150.3 -13.56c0,0 -18.86,67.36 -47.54,166.1z"></path>
  <path fill="url(#d)" d="M12445.68 5263.95c-76.86,-37.86 -154,-453.88 -180.13,-509.14 2.93,-0.96 5.67,-1.92 8.54,-3.06 15.48,-0.64 30.78,-7.72 45.58,-19.82 39.64,-21.1 73.67,-52.84 83.48,-106.19 10.32,-34.48 19.96,-67.64 29.14,-98.92 6.12,-19 11.92,-38.69 17.08,-58.83 28.68,-98.74 47.54,-166.1 47.54,-166.1l150.3 13.56 84.63 7.54c126.28,125.55 264.53,269.55 328.33,329.65l-4.84 23.7 -609.66 587.6z"></path>
  <path fill="#232121" fill-rule="nonzero" d="M12917.92 5154.7c188.53,-66.72 148.89,-281.33 148.89,-281.33 0,0 51.7,3.88 342.67,258.13 141.94,124.04 -504.43,1925.48 -654.78,2573.68 -10.46,44.62 -197.67,38 -691,-18.72 65.72,-511.51 518.77,-2211.61 583.72,-2484.54 4.66,-20.14 197.53,-21.6 270.51,-47.22z"></path>
  <path fill-rule="nonzero" d="M12273.14 4742.89c0,0 -149.98,21.92 -484.8,39.96 -141.31,7.72 -28.68,323.99 -62.66,483.84 -26.12,122.26 -23.89,511.37 -12.6,652.18 10.96,140.99 -304.99,1100.57 -355.23,1343.09 -28.04,135.32 657.66,409.85 1128.75,452.09 65.45,-507.35 323.21,-2499.88 279.37,-2510.39 -393.91,-93.58 -492.83,-460.77 -492.83,-460.77z"></path>
  <path fill="#fff" fill-rule="nonzero" d="M13027.16 4823.77l69.28 49.78c0,0 92.17,373.77 -346.87,380.57 -20.14,-64.31 -2.74,-87.19 -2.74,-87.19 0,0 177.7,56.08 279.05,-131.49 42.2,-77.5 1.28,-211.68 1.28,-211.68z"></path>
  <path fill="#d9e1e8" fill-rule="nonzero" d="M12761.63 5170c-33.98,-9.36 -379.25,-138.38 -432.09,-305.17 -32.06,-102.3 5.3,-156.28 5.3,-156.28l-103.12 31.42c0,0 -46.54,221.23 205.11,389.11 158.2,105.54 319.19,121.62 319.19,121.62l5.62 -80.7z"></path>
  <path fill="#4686d3" fill-rule="nonzero" d="M13219.71 4923.98c56.35,198.8 -14.66,370.57 -185.93,672.5 -168.07,295.17 -454.7,610.8 -440.81,785.95 29.14,367.65 -139.39,1461.79 -140.03,1571.16 184.96,51.43 760.15,18.86 847.97,-24.3 87.78,-43.66 126.28,-438.26 116.78,-952.05 -7.58,-418.44 101.67,-691.68 168.39,-888.39 66.36,-196.7 197.2,-997.63 79.93,-1040.65 -151.95,-56.09 -446.3,-124.22 -446.3,-124.22z"></path>
  <path fill="#4686d3" fill-rule="nonzero" d="M13307.49 7881.61c-37.36,77.46 1.96,190.4 1.96,190.4 0,0 -173.37,218.99 -777.54,115.69 -64.3,-10.96 129.34,-299.65 129.34,-299.65l646.24 -6.44z"></path>
  <path fill="#2b55b2" fill-rule="nonzero" d="M12702.17 7949.57c127.47,-65.58 98.15,-1315.5 115.37,-1764.86 16.76,-449.35 -14.34,-404.87 -148.52,-600.48 -139.7,-203.96 -709.59,-620.48 -629.34,-815.27 -245.07,45.3 -408.11,62.7 -617.06,145 4.2,287.95 152.27,926.3 86.18,1013.76 -4.34,245.71 -10.32,504.8 -92.16,713.29 -81.84,208.48 -387.66,893.55 -157.06,1056.73 72.16,49.78 1234.3,359.61 1442.6,251.83z"></path>
  <path fill="#2b55b2" fill-rule="nonzero" d="M11256.51 7459.3c18.81,64.12 -52.52,476.76 -52.52,476.76 0,0 953.79,306.13 1463.89,258.59 47.86,-261.01 56.86,-290.65 56.86,-290.65l-1468.22 -444.69z"></path>
  <path fill="#eac4b2" fill-rule="nonzero" d="M11504.77 6714.31c160.17,92.17 251.19,166.56 318.19,186.24 55.58,16.9 142.77,53.98 142.77,53.98 0,0 -82.98,296.77 -194.15,359.75 -39.64,22.43 -76.36,42.89 -139.39,-48.64 -62.66,-91.52 -98.42,-108.1 -136.92,-135.69 -38.04,-27.22 -150.03,-137.1 -150.03,-137.1l159.53 -278.55z"></path>
  <path fill="#4686d3" fill-rule="nonzero" d="M11486.23 4905.11c-88.42,-59.74 -215.25,143.41 -284.21,261.01 -42.2,73.3 -577.74,1117.84 -614,1444.43 -22.56,202.5 538.46,809.93 843.77,671.22 129.84,-76.22 335.45,-453.42 335.45,-453.42 0,0 -380.26,-411.31 -391.54,-434.33 -32.7,-66.86 171.58,-259.28 187.57,-323.4 135.96,-544.39 -28.04,-1132.63 -77.04,-1165.52z"></path>
  <path fill="#2b55b2" fill-rule="nonzero" d="M12616.81 6319.4c63.94,-384.09 564.54,-735.35 629.94,-1028.1 65.26,-292.57 296.45,-403.59 296.45,-403.59 0,0 -113.58,-137.88 -305.13,-240.05 -158.07,-83.62 -434.69,-161.26 -432.78,-120.2 1.28,30.96 339.65,242.97 372.35,372.35 40.92,161.26 -14.84,274.71 -78.15,444.51 -62.84,169.67 -450.81,659.76 -464.65,767.54 -13.88,107.65 -18.04,207.53 -18.04,207.53z"></path>
  <path fill="#eac4b2" fill-rule="nonzero" d="M13407.37 3948.9l23.89 -116.96c-12.61,-202.55 -133.72,-274.39 -314.35,-320.98 -64.3,-29.14 -150.8,-42.84 -268.41,-37.36 -376.06,18.22 -460.82,241.83 -451,504.94 -67.96,11.46 -19.14,103.13 -3.2,190.26 14.48,78.96 51.7,130.53 102.62,154.55 62.66,303.53 239.41,443.37 421.31,430.95 24.34,-1.74 65.91,7.13 89.11,-1.42 205.43,-34.8 293.89,-221.09 343.67,-435.7 39.32,-12.56 63.48,-75.04 90.84,-177.84 28.04,-103.13 39.19,-189.81 -34.48,-190.45z"></path>
  <path fill="#232121" fill-rule="nonzero" d="M13049.86 3441.87l-9.82 -24.8c0,0 -24.8,-61.38 -5.62,-61.38 10.96,0.14 73.3,-85.59 145.32,-17.58l16.76 -28.5c0,0 45.9,42.84 83.26,74.76 38.87,31.88 -12.88,11.74 -12.88,11.74 0,0 -2.74,-33.66 83.81,69.28 52.52,17.58 85.86,143.86 83.94,240.55 4.84,28.87 13.02,61.7 14.8,97.01 9.5,144.5 -42.06,145.96 -42.06,145.96l-28.32 18.22c0,0 60.74,-244.11 -73.35,-327.41 -98.24,-60.88 -373.95,-12.24 -373.95,-12.24l118.11 -185.61z"></path>
  <path fill-rule="nonzero" d="M12332.74 3575.77c23.2,-90.7 68.5,-201.41 207.02,-234.61 31.42,-67.32 402.81,-121.48 413.78,-110.66 5.94,6.44 -83.63,41.56 -78.96,82.94 34.34,-65.4 400.85,-107.92 416.33,-101.67 0,0 -222.19,117.97 -225.75,170.31l-8.68 5.02c8.22,-84.58 215.57,-17.4 272.79,-176.11 8.5,-23.38 0,157.56 -127.47,197.2 33.98,9.82 162.72,-91.2 164.32,-147.29 65.13,142.45 -7.21,226.53 -17.72,273.61 37.22,108.74 -65.4,160.63 -215.56,178.98 -46.54,5.62 -233.47,-48.5 -351.07,-44.17 -86.05,33.84 -206.89,97.01 -229.09,139.07 -30.65,56.54 -48.5,188.98 -48.5,188.98l-67.68 -16.63 -87.46 36.77c0,0 -68.96,-240.23 -16.3,-441.78z"></path>
  <path fill="#4686d3" fill-rule="nonzero" d="M11929.33 6845.75c-23.38 61.75-70.24 317.91-297.77 478.86-97.46 69.28-112.63 59.46-98.42 81.7 14.16 22.7 91.52 78.6 138.06 69.1 128.75-25.62 451.96-433.41 400.21-523.3-50.92-90.06-142.08-106.37-142.08-106.37zM12817.54 6238.84c162.08-516.35-406.79-1032.57-510.74-1182.74-103.44-150.48-200.41-227.8-421.63-376.56-176.43-118.74-169.03-158.66-169.03-158.66l-25.44 145c0 0-39 158.66 262.15 300.15 113.26 53.16 384.91 299.01 504.11 438.21 402.5 468.22 360.57 834.59 360.57 834.59z"></path>
  <path fill="#2b55b2" fill-rule="nonzero" d="M13241.77 6929.38c32.06,79.93 143.86,360.11 199.76,368.15 56.4,7.9 -36.08,332.71 -36.08,332.71 0,0 -259.73,-468.67 -243.93,-572.94 16.12,-104.08 80.24,-127.93 80.24,-127.93z"></path>
</svg>
